<?xml version="1.0" standalone="no"?>
<!DOCTYPE svg PUBLIC "-//W3C//DTD SVG 20010904//EN"
 "http://www.w3.org/TR/2001/REC-SVG-20010904/DTD/svg10.dtd">
<svg version="1.0" xmlns="http://www.w3.org/2000/svg"
 width="1408.000000pt" height="768.000000pt" viewBox="0 0 1408.000000 768.000000"
 preserveAspectRatio="xMidYMid meet">

<g transform="translate(0.000000,768.000000) scale(0.100000,-0.100000)"
fill="#000000" stroke="none">
<path d="M6970 7117 c-47 -15 -116 -86 -129 -133 -30 -107 6 -188 116 -264 21
-14 22 -22 26 -233 l3 -218 -36 -19 c-98 -50 -145 -170 -105 -266 8 -20 12
-41 8 -48 -4 -6 -73 -85 -153 -176 -80 -91 -161 -185 -181 -209 l-35 -43 -50
15 -49 14 3 434 c2 330 5 435 15 440 71 40 90 58 114 106 67 138 -18 290 -169
301 -99 7 -176 -44 -214 -144 -35 -91 13 -204 104 -249 l41 -20 1 -322 c0
-178 -3 -323 -8 -323 -4 0 -80 70 -170 156 -129 124 -160 159 -153 172 52 101
-17 252 -129 282 -59 16 -134 6 -177 -22 -73 -50 -103 -126 -88 -223 7 -53 64
-124 115 -145 l30 -12 0 -379 c0 -209 -2 -379 -4 -379 -2 0 -59 62 -127 138
-68 75 -134 148 -147 162 -17 18 -21 32 -17 50 4 14 9 54 11 90 4 55 1 71 -18
105 -51 87 -153 132 -241 105 -57 -17 -131 -92 -147 -148 -26 -98 32 -212 125
-248 41 -15 114 -16 161 -2 7 1 82 -75 168 -171 l156 -173 -25 -30 c-54 -64
-58 -177 -10 -250 l28 -42 -61 -121 -61 -122 -43 -6 c-24 -3 -51 -7 -61 -9
-13 -2 -55 41 -141 146 l-124 149 14 33 c18 43 18 122 0 166 -8 19 -35 53 -59
75 -132 122 -340 21 -340 -163 0 -133 148 -239 270 -193 24 9 30 7 48 -14 102
-122 193 -234 209 -254 18 -23 18 -27 2 -59 -23 -50 -21 -137 5 -189 l21 -43
-81 -136 -82 -136 -52 0 c-58 0 -121 -25 -154 -61 -26 -28 -53 -89 -53 -119 0
-11 -3 -20 -7 -20 -5 1 -57 68 -116 150 l-108 149 23 43 c32 60 31 164 -1 230
-48 101 -167 168 -269 153 -180 -25 -283 -208 -212 -373 51 -118 176 -178 311
-149 l37 8 109 -148 c60 -82 124 -169 143 -195 l33 -48 -29 -52 c-41 -75 -41
-169 -1 -248 l28 -55 -109 -165 -108 -165 -80 0 c-66 0 -87 -5 -129 -27 -63
-33 -87 -59 -119 -128 -45 -96 -29 -200 45 -284 55 -62 117 -90 199 -89 85 1
145 28 198 88 79 90 90 195 33 306 l-28 57 106 162 106 162 91 2 91 1 103
-164 c85 -135 101 -166 92 -180 -82 -115 -79 -245 8 -344 56 -63 115 -90 200
-90 84 0 144 27 198 88 39 44 72 124 72 174 0 55 -30 128 -71 175 -61 69 -108
90 -203 92 l-78 2 -101 162 -100 162 28 59 29 59 356 0 c205 0 382 -4 416 -11
175 -31 310 -104 449 -244 175 -177 257 -393 256 -677 0 -123 -81 -1343 -106
-1605 l-5 -53 390 0 390 0 -5 53 c-9 93 -25 298 -35 457 -6 85 -23 346 -39
580 -16 234 -32 477 -36 540 -7 117 7 338 27 420 27 119 89 256 145 325 48 58
139 126 211 156 129 53 191 59 668 59 l431 0 30 -59 31 -59 -92 -145 c-50 -80
-96 -154 -103 -165 -11 -18 -19 -20 -66 -15 -204 21 -358 -203 -265 -383 51
-98 143 -151 254 -147 63 2 109 20 158 63 106 93 125 236 48 352 l-25 38 35
52 c20 29 61 96 93 148 32 52 63 101 70 108 7 8 43 14 101 15 l89 2 109 -165
c107 -163 108 -164 91 -190 -48 -73 -60 -163 -35 -248 54 -176 305 -234 439
-101 177 176 38 479 -209 456 l-58 -5 -112 168 -112 168 29 49 c24 42 28 58
28 128 0 70 -4 86 -28 128 -16 27 -25 53 -20 60 4 6 67 94 141 195 l135 182
36 -7 c20 -5 59 -7 86 -7 231 7 336 303 163 459 -55 50 -101 68 -178 69 -105
1 -188 -52 -241 -155 -28 -56 -28 -161 1 -226 20 -46 20 -48 2 -73 -10 -14
-56 -77 -102 -140 -45 -63 -86 -119 -91 -124 -4 -5 -13 11 -19 36 -24 94 -107
158 -204 158 l-55 0 -81 135 -81 134 23 43 c28 53 30 147 4 196 l-17 32 124
148 c77 90 130 145 138 142 8 -2 43 -4 79 -5 74 0 122 23 165 79 98 128 18
314 -144 333 -155 18 -273 -140 -215 -287 l16 -41 -49 -57 c-27 -31 -84 -98
-127 -149 l-77 -91 -36 10 c-20 5 -47 8 -60 5 -28 -5 -36 7 -121 165 l-52 97
25 37 c33 48 38 73 33 139 -3 38 -13 66 -33 95 -28 40 -28 40 -9 62 10 13 69
79 130 148 62 69 123 138 135 153 22 26 26 27 57 16 18 -6 56 -9 83 -7 147 15
231 187 153 315 -52 85 -164 124 -252 87 -107 -44 -162 -173 -118 -278 l14
-33 -135 -154 c-74 -85 -143 -163 -154 -174 -19 -19 -19 -15 -19 365 l0 385
42 20 c66 32 102 91 106 173 4 84 -23 143 -86 187 -39 27 -52 30 -117 30 -65
0 -78 -3 -117 -30 -74 -52 -105 -139 -84 -231 7 -30 3 -35 -164 -179 -166
-143 -172 -147 -197 -134 -24 13 -25 15 -19 94 3 44 9 177 12 295 l7 215 49
24 c70 33 101 84 106 170 4 82 -23 141 -87 186 -38 27 -51 30 -115 30 -64 0
-78 -4 -114 -29 -69 -47 -87 -86 -87 -187 l0 -85 -125 -110 c-224 -195 -197
-176 -230 -159 l-30 16 0 228 0 229 24 6 c13 3 41 23 62 44 90 86 84 231 -12
310 -60 50 -128 63 -204 39z m99 -118 c33 -12 61 -52 61 -89 0 -32 -53 -80
-88 -80 -37 0 -78 31 -86 66 -13 50 14 88 80 114 1 0 15 -5 33 -11z m-678
-328 c46 -46 37 -106 -21 -136 -40 -21 -54 -19 -89 11 -24 20 -31 34 -31 63 0
83 83 119 141 62z m1350 0 c56 -56 22 -145 -56 -145 -79 0 -115 97 -54 148 40
34 74 33 110 -3z m-139 -252 c20 -11 21 -16 14 -203 -3 -105 -9 -235 -12 -289
l-7 -98 -35 -15 c-20 -8 -44 -22 -53 -30 -16 -14 -28 -7 -142 83 l-126 98 6
60 c3 35 0 73 -7 90 -11 29 -10 32 31 65 23 19 97 83 163 142 67 59 127 107
134 107 7 1 23 -4 34 -10z m-1809 -171 c33 -17 46 -39 47 -79 0 -76 -96 -113
-146 -55 -64 73 15 179 99 134z m2540 1 c78 -36 50 -163 -36 -163 -52 0 -87
35 -87 86 0 69 60 106 123 77z m-1248 -115 c25 -10 47 -62 40 -95 -8 -37 -49
-69 -87 -69 -35 0 -88 48 -88 80 0 26 25 77 42 83 19 8 74 8 93 1z m1155 -573
l0 -397 -40 -18 c-74 -33 -126 -125 -118 -211 l3 -37 -190 -147 -190 -148 -3
96 -3 96 42 34 c66 55 87 138 55 214 -27 66 -120 116 -189 102 -158 -33 -198
-238 -63 -325 l39 -25 -6 -100 c-3 -55 -11 -117 -17 -137 -16 -56 -65 -114
-160 -191 -117 -94 -180 -158 -221 -222 -19 -30 -37 -54 -40 -55 -10 0 -17
717 -8 823 14 168 47 220 247 394 119 102 148 123 166 117 11 -4 49 -9 82 -11
90 -7 154 30 196 111 19 38 27 120 15 162 -4 14 8 30 51 66 31 26 108 92 171
146 l114 100 33 -20 34 -20 0 -397z m-2162 220 c201 -196 202 -198 202 -240 0
-36 -6 -51 -34 -82 -57 -62 -69 -155 -30 -230 29 -58 113 -108 179 -109 12 0
100 -79 231 -208 196 -192 214 -213 252 -289 55 -112 63 -173 60 -452 l-3
-234 -52 68 c-29 38 -108 118 -176 179 -197 176 -419 378 -594 539 -159 147
-161 149 -152 180 22 76 2 148 -57 204 -24 24 -55 45 -69 49 l-25 6 0 403 c0
313 3 404 13 408 37 16 60 -2 255 -192z m1248 -21 l100 -78 0 -67 0 -67 -148
-125 c-82 -69 -165 -146 -184 -171 -81 -106 -124 -239 -124 -384 0 -45 -4 -78
-10 -78 -5 0 -10 5 -10 11 0 6 -88 98 -196 203 l-196 192 15 30 c24 48 29 104
13 158 -12 39 -13 53 -3 65 11 16 275 322 332 386 25 29 33 32 49 23 31 -18
119 -13 162 8 l39 20 30 -24 c17 -13 75 -58 131 -102z m-2048 -46 c72 -80 -47
-195 -123 -119 -18 17 -25 35 -25 63 0 47 15 70 55 81 40 12 65 5 93 -25z
m3621 0 c29 -37 27 -89 -4 -119 -75 -76 -191 34 -124 119 16 21 29 26 64 26
35 0 48 -5 64 -26z m-1208 -33 c41 -42 40 -90 -3 -126 -59 -50 -138 -14 -138
64 1 82 84 119 141 62z m660 -660 c20 -20 29 -39 29 -61 0 -22 -9 -41 -29 -61
-47 -46 -106 -37 -136 22 -30 57 15 127 83 129 13 0 37 -13 53 -29z m-3350
-10 c36 -37 38 -79 5 -117 -43 -50 -122 -31 -148 35 -18 50 30 110 90 111 13
0 37 -13 53 -29z m823 -2 c14 -17 26 -41 26 -54 0 -13 -12 -37 -26 -54 -20
-25 -34 -31 -64 -31 -30 0 -44 6 -64 31 -28 33 -32 59 -14 92 17 34 39 46 80
47 28 0 42 -7 62 -31z m3363 11 c40 -24 51 -61 30 -104 -20 -44 -66 -63 -107
-46 -74 31 -74 136 0 163 27 10 45 7 77 -13z m-902 -269 l60 -6 40 -75 c22
-41 54 -99 69 -128 l29 -52 -21 -23 c-11 -12 -25 -34 -31 -49 l-11 -28 -372 0
c-204 0 -368 4 -362 8 5 5 68 53 139 107 72 54 171 131 220 170 134 105 135
106 159 93 12 -6 48 -14 81 -17z m-2293 -123 c79 -72 168 -155 199 -183 l56
-51 -276 2 c-340 2 -321 1 -321 17 0 7 -13 31 -29 52 l-29 39 61 123 61 122
56 4 c30 2 60 4 67 5 6 1 76 -57 155 -130z m-473 -234 c12 -15 21 -41 21 -59
0 -50 -33 -85 -81 -85 -53 0 -89 35 -89 85 0 50 36 85 89 85 31 0 44 -6 60
-26z m3170 0 c28 -36 27 -91 -1 -121 -30 -32 -90 -32 -123 2 -56 55 -16 145
64 145 31 0 44 -6 60 -26z m-4232 -104 c8 0 28 -13 44 -29 24 -25 29 -38 29
-79 0 -43 -5 -55 -31 -81 -26 -26 -38 -31 -79 -31 -42 0 -51 4 -79 35 -36 42
-42 105 -13 142 20 26 81 54 100 48 8 -3 20 -5 29 -5z m5263 -15 c38 -20 50
-43 50 -99 0 -36 -6 -50 -31 -75 -25 -26 -39 -31 -76 -31 -38 0 -50 5 -79 34
-27 27 -34 42 -34 73 1 69 42 112 108 113 18 0 46 -7 62 -15z m-3465 -10 c81
-21 154 -64 251 -146 194 -164 279 -280 326 -444 21 -74 22 -97 20 -295 -2
-118 -6 -248 -10 -288 l-7 -73 -37 50 c-21 27 -93 98 -160 158 -275 243 -800
719 -933 845 l-99 95 29 56 30 57 265 0 c208 0 279 -3 325 -15z m2175 -11 c6
-14 7 -31 3 -37 -27 -41 -290 -270 -766 -666 -251 -208 -340 -288 -375 -337
-29 -39 -50 -60 -56 -54 -5 5 -9 138 -10 307 -1 256 2 308 17 368 43 167 148
311 275 378 117 62 146 65 545 66 l357 1 10 -26z m344 -257 l79 -128 -27 -52
c-37 -73 -36 -144 3 -215 l30 -53 -27 -53 -27 -54 -485 -3 c-267 -2 -486 -4
-486 -4 -1 0 48 41 108 91 l110 91 47 -47 c82 -82 189 -90 274 -19 80 66 102
180 51 266 l-26 44 34 56 c18 30 70 91 116 134 73 70 87 80 115 77 29 -3 38
-14 111 -131z m-3086 -155 c158 -152 323 -310 367 -351 69 -63 76 -72 50 -66
-16 4 -209 9 -427 12 l-398 5 -29 55 -30 54 29 45 c16 25 31 63 35 84 8 45 -9
114 -37 153 l-20 28 78 129 c42 72 81 130 86 130 5 0 138 -125 296 -278z
m-553 -67 c32 -31 34 -96 5 -125 -49 -49 -150 -6 -150 64 1 75 93 114 145 61z
m3170 0 c36 -35 35 -96 -1 -124 -60 -47 -144 -10 -144 64 0 76 92 114 145 60z
m760 -1 c53 -57 16 -144 -60 -144 -25 0 -44 8 -60 25 -54 53 -16 145 60 145
26 0 43 -7 60 -26z m-3984 -317 c65 -44 69 -126 8 -181 -28 -25 -37 -28 -78
-23 -62 7 -101 49 -101 111 0 96 92 146 171 93z m4057 -11 c33 -30 37 -40 37
-81 0 -41 -4 -51 -37 -81 -53 -48 -106 -48 -154 0 -26 26 -34 42 -34 70 0 73
48 125 118 126 23 0 43 -10 70 -34z m-4578 -751 c37 -19 60 -62 60 -111 0 -51
-53 -104 -104 -104 -52 0 -85 19 -108 63 -25 49 -18 94 20 129 44 41 83 48
132 23z m994 1 c46 -19 66 -52 66 -107 0 -41 -4 -51 -35 -78 -63 -55 -148 -34
-181 45 -19 46 0 101 45 131 39 27 59 28 105 9z m3061 0 c43 -18 67 -56 67
-105 -1 -70 -45 -111 -118 -111 -28 0 -44 8 -70 34 -59 59 -45 149 29 181 41
18 50 18 92 1z m1036 -22 c77 -74 24 -194 -87 -194 -51 0 -104 53 -104 104 0
110 114 164 191 90z"/>
</g>
</svg>
